<?xml version="1.0" encoding="UTF-8"?>
<svg id="Layer_4" data-name="Layer 4" xmlns="http://www.w3.org/2000/svg" viewBox="0 0 318.5 528.91">
  <defs>
    <style>
      .cls-1 {
        fill: #2852a5;
      }

      .cls-1, .cls-2 {
        stroke-width: 0px;
      }

      .cls-2 {
        fill: #fff;
      }
    </style>
  </defs>
  <path class="cls-2" d="M130.65,0C65.45,0,12.59,52.86,12.59,118.06c0,0,0,.24,0,.69.03,4.31.28,8.56.76,12.75,2.77,31.86,15.58,118.19,74.79,235.79l16.79-35.68,13.64,75.56,14.69-61.92,10.49,30.43,15.74-45.13,5.25,26.24s69.5-139.01,82.03-217.42c1.14-6.25,1.78-12.67,1.9-19.22.02-.71.03-1.41.03-2.1C248.71,52.86,195.86,0,130.65,0ZM90.03,163.89c-12.01,0-21.75-16.53-21.75-36.93s9.74-36.93,21.75-36.93,21.75,16.53,21.75,36.93-9.74,36.93-21.75,36.93ZM170.97,163.89c-12.01,0-21.75-16.53-21.75-36.93s9.74-36.93,21.75-36.93,21.75,16.53,21.75,36.93-9.74,36.93-21.75,36.93Z"/>
  <path class="cls-1" d="M215.47,297.23c-4.44,10.21-8.71,19.73-12.6,28.24,18.59,18.44,30.1,44,30.1,72.26,0,56.22-45.57,101.79-101.79,101.79-4.32,0-8.57-.27-12.75-.79-1.6-.2-3.19-.44-4.77-.71-47.87-8.3-84.28-50.04-84.28-100.29,0-23.16,7.74-44.51,20.77-61.62-4.48-10.07-8.72-20.11-12.73-30.12C14.28,329.65,0,362.02,0,397.73c0,72.45,58.73,131.18,131.18,131.18s131.18-58.73,131.18-131.18c0-40.35-18.22-76.44-46.88-100.5Z"/>
  <path class="cls-2" d="M283.34,29.91c-13.73,0-25.61,7.87-31.4,19.35h0s0,0,0,0c-.08.16-.15.31-.23.47,11.44,20.19,17.99,43.51,17.99,68.33,0,.84-.01,1.69-.03,2.54-.14,7.51-.87,15.01-2.19,22.32-1.28,7.98-3.11,16.5-5.35,25.39l51.13-84.78c3.32-5.37,5.25-11.7,5.25-18.47,0-19.42-15.74-35.16-35.16-35.16Z"/>
  <path class="cls-1" d="M200.67,356.56c6.11,23.3-4.98,55.31-30.16,80.5-25.18,25.18-57.2,36.28-80.5,30.17,12.07,7.18,26.14,11.31,41.17,11.31,44.56,0,80.81-36.25,80.81-80.81,0-15.03-4.14-29.1-11.31-41.17Z"/>
</svg>